PathFileType	4	(X/Y/Z)	C:/Users/opensim2020/Desktop/walking_exp_matlab/subject01_walking12_straight_03.trc																																																																																																																																		
DataRate	CameraRate	NumFrames	NumMarkers	Units	OrigDataRate	OrigDataStartFrame	OrigNumFrames																																																																																																																														
100	100	6	44	mm	100	1841	172																																																																																																																														
Frame#	Time	LFHD			RFHD			LBHD			RBHD			C7			T10			CLAV			STRN			RBAK			LSHO			LUPA			LELB			LFRM			LWRA			LWRB			LFIN			RSHO			RUPA			RELB			RFRM			RWRA			RWRB			RFIN			LASI			RASI			LPSI			RPSI			LTHI			LKNE			LTIB			LANK			LHEE			LTOE			RTHI			RKNE			RTIB			RANK			RHEE			RTOE			*39			*40			*41			*42			*43		
		X1	Y1	Z1	X2	Y2	Z2	X3	Y3	Z3	X4	Y4	Z4	X5	Y5	Z5	X6	Y6	Z6	X7	Y7	Z7	X8	Y8	Z8	X9	Y9	Z9	X10	Y10	Z10	X11	Y11	Z11	X12	Y12	Z12	X13	Y13	Z13	X14	Y14	Z14	X15	Y15	Z15	X16	Y16	Z16	X17	Y17	Z17	X18	Y18	Z18	X19	Y19	Z19	X20	Y20	Z20	X21	Y21	Z21	X22	Y22	Z22	X23	Y23	Z23	X24	Y24	Z24	X25	Y25	Z25	X26	Y26	Z26	X27	Y27	Z27	X28	Y28	Z28	X29	Y29	Z29	X30	Y30	Z30	X31	Y31	Z31	X32	Y32	Z32	X33	Y33	Z33	X34	Y34	Z34	X35	Y35	Z35	X36	Y36	Z36	X37	Y37	Z37	X38	Y38	Z38	X39	Y39	Z39	X40	Y40	Z40	X41	Y41	Z41	X42	Y42	Z42	X43	Y43	Z43	X44	Y44	Z44
																																																																																																																																					
65	0.64	-104.62996	1660.2915	-1114.04968	-92.1609	1663.03223	-1001.28339	-223.33994	1623.21692	-1108.30786	-213.34299	1624.96997	-988.15173	-272.26804	1425.95667	-1076.5426	-311.24683	1132.75928	-1060.01086	-131.52188	1355.65259	-1060.53247	-88.46575	1201.2782	-1061.24365	-334.77368	1229.73694	-1003.67206	-177.55952	1385.82837	-1226.17371	-181.79111	1206.97961	-1319.74976	-159.86975	1055.22632	-1335.14661	-64.83406	986.54993	-1356.96362	66.43281	944.77539	-1338.71997	26.32065	905.62097	-1359.51428	104.31654	881.2738	-1374.52905	-208.64253	1383.64954	-914.68176	-302.78845	1193.45874	-824.65881	-317.57498	1070.43579	-818.76123	-316.97092	951.36157	-785.05322	-263.55139	819.58862	-798.87518	-309.0759	830.8194	-762.96686	-288.54718	747.39459	-760.89246	-146.47406	923.12335	-1162.745	-135.80182	931.36707	-946.2829	-329.91406	939.79181	-1097.25317	-319.32471	938.22308	-952.38	-236.83102	596.03351	-1206.96497	-274.68182	464.36633	-1188.41492	-355.09088	292.73856	-1190.49133	-416.44461	82.8782	-1134.68152	-465.5448	61.44995	-1082.09204	-274.9324	32.28119	-1141.64587	-96.78375	608.60657	-882.46167	-35.27977	464.61487	-913.02747	-49.18566	290.40787	-903.69592	-16.46399	83.64939	-949.77887	-51.26743	34.78598	-1004.01929	125.57011	74.84384	-943.03833	-101.19477	1697.59448	-1023.60022	1973.04407	1023.51019	-3101.95313	2012.39929	1021.9162	-3140.7627	NaN	NaN	NaN	NaN	NaN	NaN
66	0.65	-94.66535	1659.56653	-1112.79749	-82.47881	1662.21936	-999.95563	-213.33876	1622.21118	-1107.33972	-203.53206	1623.85608	-987.07678	-262.12506	1425.10193	-1075.55981	-300.66595	1131.65527	-1058.92371	-121.12632	1354.78967	-1059.48755	-77.87944	1200.4491	-1060.57556	-324.24564	1228.52002	-1002.71686	-166.97362	1385.11694	-1225.09998	-169.94987	1206.70581	-1319.13306	-147.90083	1055.14648	-1335.42236	-51.57495	988.24976	-1357.22522	80.58652	949.125	-1338.64514	41.25174	909.26465	-1359.80652	119.76806	886.64465	-1374.61926	-198.22357	1382.65991	-913.67963	-293.95627	1192.76392	-824.59613	-309.44684	1069.99854	-818.89551	-310.31915	950.97986	-785.05328	-258.20987	818.51764	-798.39252	-303.62057	830.29541	-762.85663	-284.39847	746.62177	-760.65814	-136.54866	922.51453	-1163.06531	-124.30235	930.11786	-946.6366	-319.53021	938.99316	-1095.83936	-307.7587	937.11945	-951.23218	-230.08057	596.22552	-1207.09778	-269.26471	464.77762	-1188.5332	-351.87167	294.05844	-1190.56372	-415.56693	84.76658	-1134.77588	-464.89493	64.04591	-1082.15857	-274.45581	32.04984	-1141.47131	-89.94171	605.96875	-881.58099	-25.16506	463.61087	-913.83185	-31.22439	289.60013	-903.45404	10.53607	84.0415	-948.99152	-22.51632	33.44885	-1003.14087	153.17961	81.25085	-943.82404	-91.43678	1696.94617	-1022.0459	1973.10498	1023.4281	-3102.09912	2012.46436	1021.92535	-3140.69727	NaN	NaN	NaN	NaN	NaN	NaN
67	0.66	-84.69687	1658.80591	-1111.43506	-72.76814	1661.35962	-998.62085	-203.2538	1621.23962	-1106.29028	-193.71687	1622.82141	-986.02057	-251.57927	1424.00012	-1074.28735	-290.17572	1130.63171	-1057.54102	-110.68257	1353.90918	-1058.31995	-67.3649	1199.61816	-1059.80151	-313.70514	1227.36975	-1001.60547	-156.43082	1384.42065	-1223.92688	-158.89366	1206.40381	-1318.39453	-136.10973	1055.10901	-1335.5874	-38.61514	989.84991	-1357.32654	94.13024	953.12677	-1338.50696	55.66454	912.70856	-1359.94531	134.68875	891.62994	-1374.6106	-187.91025	1381.7384	-912.39838	-284.80634	1192.03723	-824.32318	-301.04861	1069.48633	-818.83008	-303.43726	950.46283	-785.05701	-252.52797	817.53937	-797.86584	-298.01572	829.76215	-762.70984	-279.72824	745.87915	-760.43378	-126.44567	921.96362	-1163.32495	-112.73562	928.77362	-946.9425	-308.9855	938.09143	-1094.51233	-296.59369	936.11475	-949.92676	-222.78268	596.30676	-1207.02258	-263.26398	465.16129	-1188.63599	-348.31186	295.48404	-1190.69348	-414.62509	86.7564	-1134.99365	-464.14304	66.95781	-1082.37793	-274.70578	32.095	-1141.65442	-82.38921	603.57227	-880.11249	-15.05237	462.73206	-914.37146	-14.06331	289.26938	-903.19012	34.80937	84.81565	-948.74884	3.67982	33.14449	-1002.30945	178.20432	86.68443	-944.98871	-81.85838	1695.9845	-1020.86969	1973.07751	1023.34888	-3101.91699	2012.56104	1021.99341	-3140.66528	NaN	NaN	NaN	NaN	NaN	NaN
68	0.67	-74.68734	1658.08325	-1110.07336	-62.86739	1660.69421	-997.16034	-193.15785	1620.26367	-1105.05151	-183.83992	1621.91028	-984.78955	-241.26814	1423.08655	-1073.04639	-279.46738	1129.58435	-1056.20667	-100.15073	1353.09839	-1057.02417	-56.66613	1198.83691	-1058.93457	-303.05173	1226.2179	-1000.32849	-145.97244	1383.8396	-1222.67358	-148.01222	1206.07605	-1317.47498	-124.4654	1054.9823	-1335.49646	-25.95693	991.35559	-1357.25891	107.29963	956.88184	-1338.33459	69.66343	915.80457	-1359.91174	149.0766	896.2359	-1374.46265	-177.36636	1380.68115	-911.06781	-275.34338	1191.22302	-823.78522	-292.2822	1068.901	-818.62604	-296.13068	950.00555	-784.86462	-246.38887	816.50525	-797.23859	-291.5054	829.19525	-762.38416	-274.75232	745.06567	-760.17847	-116.17416	921.46124	-1163.44482	-101.04694	927.48499	-947.14746	-298.29129	937.21973	-1093.20154	-284.88431	934.8183	-948.6817	-214.92375	596.34033	-1206.97009	-256.62769	465.49185	-1188.70203	-344.25531	296.9407	-1190.9259	-413.52911	88.8705	-1135.31824	-463.24945	69.90216	-1082.70337	-274.59546	32.06331	-1141.72729	-73.94714	601.70117	-878.60162	-4.78169	462.04904	-914.54047	1.61541	289.0643	-903.03552	56.8905	85.83273	-948.61072	26.4462	32.59469	-1002.18353	200.62263	91.01321	-946.75531	-72.00408	1695.25659	-1019.47394	1973.15527	1023.37097	-3101.82861	2012.53613	1021.91376	-3140.75806	NaN	NaN	NaN	NaN	NaN	NaN
69	0.68	-64.59462	1657.38928	-1108.45422	-52.98858	1659.96948	-995.67792	-183.06491	1619.29517	-1103.65112	-173.88028	1620.99255	-983.43573	-230.85484	1422.13892	-1071.44824	-268.69556	1128.50647	-1054.82849	-89.57744	1352.33618	-1055.73694	-45.96419	1198.11768	-1058.00916	-292.31183	1225.04822	-998.96851	-135.61975	1383.19885	-1221.33289	-137.15491	1205.75806	-1316.46875	-113.00917	1054.91394	-1335.31335	-13.5827	992.73492	-1357.04883	120.08246	960.25037	-1338.00085	83.12585	918.61859	-1359.71521	162.92343	900.38446	-1374.22754	-166.89165	1379.69385	-909.67432	-265.49155	1190.29883	-823.07422	-283.09137	1068.21936	-818.224	-288.35345	949.43109	-784.52582	-239.82013	815.4104	-796.5354	-285.35809	828.51959	-762.09009	-269.27454	744.16302	-759.85889	-105.74435	920.93591	-1163.46143	-89.39723	926.20471	-947.16992	-287.40039	936.24335	-1092.0332	-273.33014	933.72089	-947.57404	-206.38199	596.20636	-1206.86157	-249.34799	465.66425	-1188.79395	-339.62994	298.44336	-1191.17993	-412.18823	91.3204	-1135.85376	-462.38321	73.29359	-1083.20984	-274.42139	32.08764	-1141.81677	-64.04642	600.23199	-877.4151	5.632	461.44803	-914.37469	16.35886	288.79404	-902.97797	76.04065	86.52487	-948.83234	45.64204	33.14616	-1002.12592	220.19989	94.31707	-949.1225	-62.10861	1694.51929	-1018.03607	1973.08411	1023.37024	-3101.9873	2012.49231	1022.04498	-3140.82837	NaN	NaN	NaN	NaN	NaN	NaN
70	0.69	-54.56779	1656.67456	-1107.03455	-43.02864	1659.35742	-994.09967	-172.90601	1618.3623	-1102.24133	-163.82915	1620.12109	-981.93048	-220.43066	1421.22559	-1069.87061	-257.81015	1127.47693	-1053.35486	-79.01331	1351.63159	-1054.28467	-35.09816	1197.4469	-1056.96826	-281.56363	1223.96667	-997.46796	-125.3309	1382.74316	-1219.83191	-126.48853	1205.43701	-1315.19995	-101.71758	1054.86902	-1334.84729	-1.55255	994.03522	-1356.60974	132.46977	963.24286	-1337.59033	96.12001	921.13928	-1359.3656	176.16592	904.10779	-1373.91467	-156.33951	1378.59241	-908.11029	-255.38242	1189.38477	-822.03973	-273.50443	1067.48535	-817.62024	-280.11371	948.81781	-784.06506	-232.74992	814.32178	-795.79309	-278.4259	827.80811	-761.71069	-263.32318	743.18488	-759.75812	-95.05551	920.44684	-1163.34985	-77.74247	925.11133	-947.07043	-276.34	935.29462	-1091.0033	-262.2724	932.7951	-946.65631	-197.23441	596.04169	-1206.74036	-241.34183	465.73892	-1188.8446	-334.40631	300.00714	-1191.55334	-410.66592	94.01067	-1136.61072	-461.11728	76.88382	-1083.88513	-274.31915	32.16235	-1142.17761	-53.08292	599.41418	-876.98352	16.075	460.60153	-914.2757	29.67295	288.17487	-903.32611	92.31865	86.67172	-949.12366	62.51687	33.18637	-1002.0498	236.84515	96.36392	-951.81378	-52.24407	1693.89941	-1016.51672	1973.04858	1023.80902	-3102.04956	2012.56213	1022.07501	-3140.68481	NaN	NaN	NaN	NaN	NaN	NaN
